<?xml version="1.0" standalone="no"?>
<!DOCTYPE svg PUBLIC "-//W3C//DTD SVG 20010904//EN"
 "http://www.w3.org/TR/2001/REC-SVG-20010904/DTD/svg10.dtd">
<svg version="1.0" xmlns="http://www.w3.org/2000/svg"
 width="300.000000pt" height="300.000000pt" viewBox="0 0 300.000000 300.000000"
 preserveAspectRatio="xMidYMid meet">
<metadata>
Created by potrace 1.11, written by Peter Selinger 2001-2013
</metadata>
<g transform="translate(0.000000,300.000000) scale(0.100000,-0.100000)"
fill="#000000" stroke="none">
<path d="M810 2044 c-36 -14 -73 -27 -82 -29 -9 -2 -38 -13 -63 -24 -25 -11
-45 -18 -45 -16 0 4 -52 -14 -115 -40 -11 -5 -22 -9 -25 -10 -3 0 -36 -12 -75
-25 -38 -13 -72 -25 -75 -25 -3 -1 -17 -7 -33 -13 l-27 -12 2 -197 3 -197 50
-17 c28 -10 115 -41 195 -69 80 -28 165 -58 190 -66 25 -8 54 -20 65 -25 12
-6 27 -11 35 -13 47 -9 49 -13 49 -126 l1 -109 -118 41 c-64 22 -128 45 -142
51 -14 5 -30 11 -36 12 -13 3 -212 73 -241 85 -37 15 -54 2 -51 -38 3 -30 8
-37 38 -48 90 -32 481 -171 539 -191 51 -17 60 -15 229 45 62 22 120 39 130
37 9 -2 75 -24 147 -49 142 -50 171 -55 177 -28 11 46 -16 66 -145 107 -56 17
-63 30 -22 38 11 2 29 7 40 11 99 37 124 50 127 64 2 9 3 144 3 300 -1 155 1
282 3 282 11 0 189 -64 198 -71 7 -6 10 -108 10 -315 -1 -282 0 -307 17 -319
9 -7 28 -10 40 -8 l23 5 -1 296 c-1 163 1 300 2 304 2 4 26 -1 53 -12 28 -11
50 -18 50 -16 0 2 26 -7 58 -20 l57 -23 3 -312 c2 -235 5 -315 15 -321 21 -13
55 -9 61 8 3 9 6 152 6 318 l0 303 28 12 c15 7 47 19 72 27 25 8 54 19 65 24
19 9 109 39 130 44 6 2 23 8 38 14 16 7 34 12 41 12 7 0 16 3 19 6 6 6 105 43
118 44 3 0 5 -129 5 -287 -1 -182 3 -294 10 -307 10 -21 40 -23 59 -5 13 13
16 679 3 696 -5 6 -46 24 -91 39 -45 15 -88 31 -94 37 -7 5 -13 7 -13 5 0 -3
-73 21 -162 54 -90 32 -170 61 -178 63 -102 31 -72 37 -390 -75 l-294 -104
-126 43 c-69 24 -136 48 -150 54 -14 6 -30 11 -36 12 -6 2 -68 23 -139 49 -70
25 -137 46 -149 45 -11 0 -50 -11 -86 -25z m1367 -90 c38 -14 75 -27 83 -29 8
-2 16 -4 18 -5 1 -2 5 -3 10 -4 4 -1 12 -4 17 -7 9 -6 107 -40 130 -45 50 -12
115 -41 115 -52 0 -6 -3 -11 -7 -10 -8 2 -75 -18 -108 -32 -29 -13 -227 -82
-239 -84 -6 -1 -15 -4 -21 -7 -44 -26 -87 -30 -138 -13 -28 10 -56 19 -62 21
-5 1 -83 29 -172 61 -89 33 -164 57 -167 55 -2 -2 -6 2 -9 10 -3 7 0 14 6 14
10 0 182 58 237 80 70 28 226 79 232 76 4 -2 38 -15 75 -29z m-1175 -5 c46
-17 90 -32 98 -34 8 -2 47 -16 85 -31 39 -14 80 -29 93 -31 12 -3 25 -9 28
-14 3 -5 16 -9 29 -9 54 0 27 -18 -88 -59 -67 -23 -152 -54 -190 -68 -37 -13
-73 -26 -80 -27 -6 -2 -25 -9 -42 -15 -34 -14 -41 -12 -280 73 -71 26 -138 49
-147 51 -9 2 -26 9 -38 15 -11 6 -25 8 -32 4 -6 -4 -9 -1 -6 6 2 7 53 29 113
50 61 21 160 56 220 78 61 23 120 41 132 41 12 1 59 -13 105 -30z m-452 -269
c96 -34 204 -72 240 -84 l65 -23 3 -103 c3 -130 2 -136 -38 -115 -16 8 -32 15
-35 15 -13 1 -323 108 -365 127 -8 4 -19 7 -25 8 -49 6 -51 9 -51 131 -1 101
1 115 15 111 9 -3 95 -33 191 -67z m905 -197 l0 -268 -28 -12 c-16 -7 -33 -11
-37 -8 -5 3 -10 0 -12 -5 -2 -6 -10 -12 -18 -14 -22 -3 -62 -16 -85 -26 -17
-7 -60 -23 -180 -64 -5 -2 -13 -4 -18 -5 -4 0 -23 -7 -42 -15 -19 -8 -35 -13
-35 -11 0 2 -12 -3 -27 -10 -15 -8 -30 -10 -33 -6 -3 5 -3 127 0 271 l5 263
80 28 c44 16 118 42 165 59 47 16 121 43 165 59 44 17 85 30 90 31 7 0 10 -94
10 -267z"/>
</g>
</svg>
